# Blender v2.76 (sub 0) OBJ File: ''
# www.blender.org
mtllib Sony_nw-e394.mtl
o Sony_Walkman_e394
v 0.004378 -0.488514 -0.038649
v 0.004378 0.488523 -0.038642
v 0.082493 0.487072 -0.036769
v 0.082052 -0.484922 -0.036795
v 0.152881 0.483406 -0.031353
v 0.152358 -0.476946 -0.031410
v 0.207786 0.477888 -0.023241
v 0.208363 -0.468719 -0.023037
v 0.240815 0.466700 -0.015671
v 0.244592 -0.462908 -0.012685
v 0.251088 -0.461575 0.006928
v 0.251088 0.447184 0.006928
v 0.240815 0.466700 0.015671
v 0.244592 -0.462908 0.012685
v 0.207786 0.477888 0.023241
v 0.208363 -0.468719 0.023037
v 0.152881 0.483406 0.031353
v 0.152358 -0.476946 0.031410
v 0.082493 0.487072 0.036769
v 0.082052 -0.484922 0.036795
v 0.004378 0.488523 0.038642
v 0.004378 -0.488514 0.038648
v -0.073736 0.487072 0.036769
v -0.073296 -0.484922 0.036795
v -0.144125 0.483406 0.031353
v -0.143601 -0.476946 0.031410
v -0.199029 0.477888 0.023241
v -0.199607 -0.468719 0.023037
v -0.232058 0.466700 0.015671
v -0.235835 -0.462908 0.012685
v -0.242331 0.447184 0.006928
v -0.249540 -0.461575 0.006928
v -0.242331 -0.461575 -0.006928
v -0.242331 0.447183 -0.006928
v -0.232058 0.466700 -0.015671
v -0.235835 -0.462908 -0.012685
v -0.199029 0.477888 -0.023241
v -0.199607 -0.468719 -0.023037
v -0.144124 0.483406 -0.031353
v -0.143601 -0.476946 -0.031410
v -0.073736 0.487072 -0.036769
v -0.073295 -0.484922 -0.036795
v 0.253221 -0.470156 -0.000000
v 0.258299 0.450299 0.000000
v 0.241042 -0.472804 0.010746
v 0.245871 0.475277 0.005970
v 0.205696 -0.478610 0.020439
v 0.209805 0.487731 0.011355
v 0.150644 -0.486865 0.028132
v 0.153629 0.493381 0.015629
v 0.081275 -0.494896 0.033072
v 0.082844 0.497068 0.018373
v 0.004378 -0.498525 0.034774
v 0.004378 0.498525 0.019319
v -0.072518 -0.494896 0.033072
v -0.074088 0.497068 0.018373
v -0.141888 -0.486865 0.028132
v -0.144873 0.493381 0.015629
v -0.196940 -0.478610 0.020439
v -0.201048 0.487731 0.011355
v -0.232285 -0.472804 0.010746
v -0.237115 0.475277 0.005970
v -0.244462 -0.470156 -0.000000
v -0.249540 0.450299 0.000000
v 0.081275 -0.494896 -0.033072
v 0.004378 -0.498525 -0.034774
v 0.004378 0.498525 -0.019319
v 0.082844 0.497068 -0.018373
v 0.150644 -0.486865 -0.028133
v 0.153629 0.493381 -0.015629
v 0.205696 -0.478610 -0.020439
v 0.209805 0.487731 -0.011355
v 0.241042 -0.472804 -0.010746
v 0.245871 0.475277 -0.005970
v -0.232285 -0.472804 -0.010746
v -0.237115 0.475277 -0.005970
v -0.196939 -0.478610 -0.020440
v -0.201048 0.487731 -0.011355
v -0.141887 -0.486865 -0.028133
v -0.144872 0.493381 -0.015629
v -0.072518 -0.494896 -0.033072
v -0.074087 0.497068 -0.018373
vt 0.767048 0.013814
vt 0.767048 0.986195
vt 0.696546 0.984686
vt 0.696943 0.013747
vt 0.633016 0.984635
vt 0.633485 0.015014
vt 0.583447 0.983483
vt 0.582918 0.015738
vt 0.553148 0.975444
vt 0.550028 0.018377
vt 0.508461 0.050010
vt 0.508461 0.939498
vt 0.497548 0.958635
vt 0.501847 0.044896
vt 0.465004 0.969599
vt 0.465601 0.034630
vt 0.409975 0.975016
vt 0.409449 0.025819
vt 0.339391 0.978643
vt 0.338949 0.020296
vt 0.261057 0.980069
vt 0.261057 0.016765
vt 0.182722 0.978643
vt 0.183163 0.020321
vt 0.112133 0.975015
vt 0.112654 0.025761
vt 0.057057 0.969592
vt 0.056469 0.034468
vt 0.023390 0.958621
vt 0.019924 0.044355
vt 0.013653 0.939498
vt 0.013653 0.050010
vt 0.989712 0.027990
vt 0.989712 0.972569
vt 0.979890 0.981777
vt 0.983759 0.019811
vt 0.950600 0.983902
vt 0.951137 0.015860
vt 0.901074 0.984661
vt 0.900600 0.014969
vt 0.837548 0.984703
vt 0.837150 0.013711
vt 0.515693 0.046680
vt 0.515693 0.942535
vt 0.503230 0.035347
vt 0.503230 0.967083
vt 0.467062 0.024879
vt 0.467062 0.979322
vt 0.410728 0.015973
vt 0.410728 0.984874
vt 0.339744 0.010462
vt 0.339744 0.988498
vt 0.261057 0.006895
vt 0.261057 0.989930
vt 0.182370 0.010462
vt 0.182370 0.988498
vt 0.111386 0.015973
vt 0.111386 0.984874
vt 0.055052 0.024879
vt 0.055052 0.979322
vt 0.018884 0.035347
vt 0.018884 0.967083
vt 0.006421 0.046680
vt 0.006421 0.942535
vt 0.537875 0.988734
vt 0.537875 0.028520
vt 0.696230 0.003711
vt 0.767048 0.003851
vt 0.767048 0.996149
vt 0.696230 0.994687
vt 0.632344 0.004834
vt 0.632344 0.994770
vt 0.581643 0.005553
vt 0.581643 0.994144
vt 0.549092 0.009486
vt 0.549092 0.992364
vt 0.985004 0.009486
vt 0.996220 0.028520
vt 0.996220 0.988734
vt 0.985004 0.992364
vt 0.952452 0.005553
vt 0.952452 0.994144
vt 0.901752 0.004834
vt 0.901752 0.994770
vt 0.837866 0.003711
vt 0.837866 0.994687
vt 1.000000 0.050010
vt 0.034315 0.949359
vt 0.045604 0.943125
vt 0.045605 0.955592
vt 0.078369 0.937502
vt 0.078369 0.961216
vt 0.129400 0.933039
vt 0.129400 0.965678
vt 0.193704 0.930174
vt 0.193704 0.968543
vt 0.264984 0.929187
vt 0.264984 0.969531
vt 0.336265 0.930174
vt 0.336265 0.968543
vt 0.400569 0.933039
vt 0.400569 0.965678
vt 0.451600 0.937502
vt 0.451600 0.961216
vt 0.484365 0.943125
vt 0.484365 0.955592
vt 0.495654 0.949359
vt 1.001358 0.671499
vt 0.990048 0.681478
vt 0.990048 0.661520
vt 0.957224 0.690480
vt 0.957224 0.652518
vt 0.906099 0.697625
vt 0.906099 0.645373
vt 0.841678 0.702212
vt 0.841678 0.640786
vt 0.770267 0.703792
vt 0.770267 0.639206
vt 0.698855 0.702212
vt 0.698856 0.640786
vt 0.634434 0.697625
vt 0.634435 0.645373
vt 0.583310 0.690480
vt 0.583310 0.652518
vt 0.550485 0.681478
vt 0.550486 0.661520
vt 0.539178 0.671499
vt 1.000000 0.939498
vn -0.000000 -0.186000 -0.982600
vn -0.000000 0.516400 -0.856300
vn 0.057000 0.505700 -0.860800
vn 0.063700 -0.180300 -0.981500
vn 0.123700 0.472700 -0.872500
vn 0.131900 -0.167000 -0.977100
vn 0.238400 0.422600 -0.874400
vn 0.227600 -0.155800 -0.961200
vn 0.509700 0.274300 -0.815500
vn 0.526700 -0.136600 -0.839000
vn 0.740600 -0.122800 0.660600
vn 0.737500 0.047300 0.673700
vn 0.491600 0.265300 0.829400
vn 0.497500 -0.174200 0.849800
vn 0.238400 0.422600 0.874400
vn 0.227600 -0.155800 0.961200
vn 0.123700 0.472700 0.872500
vn 0.131900 -0.167100 0.977100
vn 0.057000 0.505700 0.860800
vn 0.063700 -0.180300 0.981500
vn -0.000000 0.516400 0.856300
vn -0.000000 -0.185900 0.982600
vn -0.057000 0.505700 0.860800
vn -0.063700 -0.180300 0.981500
vn -0.123700 0.472700 0.872500
vn -0.131900 -0.167100 0.977100
vn -0.238400 0.422600 0.874400
vn -0.227600 -0.155800 0.961200
vn -0.476200 0.265000 0.838500
vn -0.420600 -0.234100 0.876500
vn -0.836700 0.056200 0.544700
vn -0.904700 -0.207400 0.372100
vn -0.802300 -0.147000 -0.578600
vn -0.800800 0.049300 -0.597000
vn -0.491600 0.265300 -0.829400
vn -0.497600 -0.174200 -0.849800
vn -0.238400 0.422600 -0.874400
vn -0.227600 -0.155800 -0.961200
vn -0.123700 0.472700 -0.872500
vn -0.131900 -0.167000 -0.977100
vn -0.057000 0.505700 -0.860800
vn -0.063700 -0.180300 -0.981500
vn 0.816300 -0.577400 -0.015400
vn 0.992600 0.116300 -0.034000
vn 0.389400 -0.750200 0.534300
vn 0.652200 0.668400 0.357700
vn 0.235100 -0.782600 0.576400
vn 0.245400 0.909100 0.336700
vn 0.164300 -0.802400 0.573700
vn 0.097300 0.952700 0.287900
vn 0.091300 -0.818100 0.567700
vn 0.043900 0.966400 0.253200
vn -0.000000 -0.825300 0.564700
vn -0.000000 0.970100 0.242500
vn -0.091300 -0.818100 0.567700
vn -0.043900 0.966400 0.253200
vn -0.164300 -0.802400 0.573700
vn -0.097300 0.952700 0.287900
vn -0.235100 -0.782600 0.576400
vn -0.245400 0.909100 0.336700
vn -0.341800 -0.780800 0.523000
vn -0.652200 0.668400 0.357700
vn -0.731000 -0.677700 -0.079400
vn -0.982400 0.161900 -0.093200
vn 0.091300 -0.818100 -0.567700
vn -0.000000 -0.825300 -0.564700
vn -0.000000 0.970100 -0.242500
vn 0.043900 0.966400 -0.253200
vn 0.164300 -0.802400 -0.573800
vn 0.097300 0.952700 -0.287900
vn 0.235100 -0.782600 -0.576400
vn 0.245400 0.909100 -0.336700
vn 0.389500 -0.750100 -0.534400
vn 0.650200 0.679800 -0.339300
vn -0.389400 -0.750200 -0.534300
vn -0.652200 0.668400 -0.357700
vn -0.235100 -0.782600 -0.576400
vn -0.245400 0.909100 -0.336700
vn -0.164300 -0.802400 -0.573800
vn -0.097300 0.952700 -0.287900
vn -0.091300 -0.818100 -0.567700
vn -0.043900 0.966400 -0.253200
usemtl Sony_Material
s 1
f 1/1/1 2/2/2 3/3/3 4/4/4
f 4/4/4 3/3/3 5/5/5 6/6/6
f 6/6/6 5/5/5 7/7/7 8/8/8
f 8/8/8 7/7/7 9/9/9 10/10/10
f 11/11/11 12/12/12 13/13/13 14/14/14
f 14/14/14 13/13/13 15/15/15 16/16/16
f 16/16/16 15/15/15 17/17/17 18/18/18
f 18/18/18 17/17/17 19/19/19 20/20/20
f 20/20/20 19/19/19 21/21/21 22/22/22
f 22/22/22 21/21/21 23/23/23 24/24/24
f 24/24/24 23/23/23 25/25/25 26/26/26
f 26/26/26 25/25/25 27/27/27 28/28/28
f 28/28/28 27/27/27 29/29/29 30/30/30
f 30/30/30 29/29/29 31/31/31 32/32/32
f 33/33/33 34/34/34 35/35/35 36/36/36
f 36/36/36 35/35/35 37/37/37 38/38/38
f 38/38/38 37/37/37 39/39/39 40/40/40
f 40/40/40 39/39/39 41/41/41 42/42/42
f 42/42/42 41/41/41 2/2/2 1/1/1
f 12/12/12 11/11/11 43/43/43 44/44/44
f 11/11/11 14/14/14 45/45/45 43/43/43
f 13/13/13 12/12/12 44/44/44 46/46/46
f 14/14/14 16/16/16 47/47/47 45/45/45
f 15/15/15 13/13/13 46/46/46 48/48/48
f 16/16/16 18/18/18 49/49/49 47/47/47
f 17/17/17 15/15/15 48/48/48 50/50/50
f 18/18/18 20/20/20 51/51/51 49/49/49
f 19/19/19 17/17/17 50/50/50 52/52/52
f 20/20/20 22/22/22 53/53/53 51/51/51
f 21/21/21 19/19/19 52/52/52 54/54/54
f 22/22/22 24/24/24 55/55/55 53/53/53
f 23/23/23 21/21/21 54/54/54 56/56/56
f 24/24/24 26/26/26 57/57/57 55/55/55
f 25/25/25 23/23/23 56/56/56 58/58/58
f 26/26/26 28/28/28 59/59/59 57/57/57
f 27/27/27 25/25/25 58/58/58 60/60/60
f 28/28/28 30/30/30 61/61/61 59/59/59
f 29/29/29 27/27/27 60/60/60 62/62/62
f 30/30/30 32/32/32 63/63/63 61/61/61
f 31/31/31 29/29/29 62/62/62 64/64/64
f 9/9/9 44/65/44 43/66/43 10/10/10
f 1/1/1 4/4/4 65/67/65 66/68/66
f 3/3/3 2/2/2 67/69/67 68/70/68
f 4/4/4 6/6/6 69/71/69 65/67/65
f 5/5/5 3/3/3 68/70/68 70/72/70
f 6/6/6 8/8/8 71/73/71 69/71/69
f 7/7/7 5/5/5 70/72/70 72/74/72
f 8/8/8 10/10/10 73/75/73 71/73/71
f 9/9/9 7/7/7 72/74/72 74/76/74
f 10/10/10 43/66/43 73/75/73
f 9/9/9 74/76/74 44/65/44
f 33/33/33 36/36/36 75/77/75 63/78/63
f 35/35/35 34/34/34 64/79/64 76/80/76
f 36/36/36 38/38/38 77/81/77 75/77/75
f 37/37/37 35/35/35 76/80/76 78/82/78
f 38/38/38 40/40/40 79/83/79 77/81/77
f 39/39/39 37/37/37 78/82/78 80/84/80
f 40/40/40 42/42/42 81/85/81 79/83/79
f 41/41/41 39/39/39 80/84/80 82/86/82
f 42/42/42 1/1/1 66/68/66 81/85/81
f 2/2/2 41/41/41 82/86/82 67/69/67
f 33/87/33 63/78/63 32/33/32
f 64/88/64 62/89/62 76/90/76
f 60/91/60 78/92/78 76/90/76 62/89/62
f 58/93/58 80/94/80 78/92/78 60/91/60
f 56/95/56 82/96/82 80/94/80 58/93/58
f 54/97/54 67/98/67 82/96/82 56/95/56
f 52/99/52 68/100/68 67/98/67 54/97/54
f 50/101/50 70/102/70 68/100/68 52/99/52
f 48/103/48 72/104/72 70/102/70 50/101/50
f 46/105/46 74/106/74 72/104/72 48/103/48
f 44/107/44 74/106/74 46/105/46
f 43/108/43 45/109/45 73/110/73
f 47/111/47 71/112/71 73/110/73 45/109/45
f 49/113/49 69/114/69 71/112/71 47/111/47
f 51/115/51 65/116/65 69/114/69 49/113/49
f 53/117/53 66/118/66 65/116/65 51/115/51
f 55/119/55 81/120/81 66/118/66 53/117/53
f 57/121/57 79/122/79 81/120/81 55/119/55
f 59/123/59 77/124/77 79/122/79 57/121/57
f 61/125/61 75/126/75 77/124/77 59/123/59
f 63/127/63 75/126/75 61/125/61
f 34/34/34 33/33/33 32/87/32 31/128/31 64/79/64
